name C:\Users\u0101727\Documents\MyRepositories\upper-imu-dc\Results\main_mocap_tracking\Case_8\kinematics.mot
datacolumns 12
datarows 27
range 0.50000000 0.76000000
endheader 
time	clav_prot	clav_elev	scapula_abduction	scapula_elevation	scapula_upward_rot	scapula_winging	plane_elv	shoulder_elv	axial_rot	elbow_flexion	pro_sup	
          0.50000000	        -24.24023493	         -3.88780559	        -14.52356881	         -4.25787010	         14.66810622	          4.86975419	        -24.78836649	         12.37039465	         39.41602133	          0.01516607	         34.31839839	
          0.51000000	        -24.21855865	         -3.93194231	        -14.47656254	         -4.27043362	         14.61811616	          4.89096114	        -24.65805231	         12.31738883	         39.86386575	         -0.00838517	         34.32041640	
          0.52000000	        -24.20432409	         -3.94683670	        -14.46132838	         -4.27524045	         14.59602477	          4.90156214	        -24.49024654	         12.27239361	         40.34513835	         -0.01592341	         34.32103265	
          0.53000000	        -24.17316547	         -3.95721455	        -14.41539355	         -4.27673312	         14.57859710	          4.90967327	        -24.26107196	         12.23995411	         40.84710685	         -0.01119021	         34.32064991	
          0.54000000	        -24.14700442	         -3.96313376	        -14.38075209	         -4.27447412	         14.55859625	          4.91689749	        -23.95730452	         12.21625966	         41.31026138	         -0.00176924	         34.31986163	
          0.55000000	        -24.12651161	         -3.96678794	        -14.35850903	         -4.26995088	         14.53513497	          4.92418415	        -23.57097024	         12.20058743	         41.65091397	          0.00540321	         34.31925509	
          0.56000000	        -24.10822158	         -3.97112187	        -14.34203000	         -4.26514957	         14.50804203	          4.93257857	        -23.09574645	         12.19578397	         41.79645228	          0.00811670	         34.31902245	
          0.57000000	        -24.08928701	         -3.97850706	        -14.32601262	         -4.26160631	         14.47694509	          4.94297419	        -22.52843543	         12.20536889	         41.70514583	          0.00717633	         34.31909692	
          0.58000000	        -24.06855293	         -3.99057416	        -14.30845277	         -4.26031447	         14.44114753	          4.95608547	        -21.86982957	         12.23206337	         41.36795511	          0.00409000	         34.31934229	
          0.59000000	        -24.04672799	         -4.00813454	        -14.29088079	         -4.26170951	         14.39976298	          4.97239369	        -21.12413385	         12.27769432	         40.79786964	          0.00035222	         34.31964026	
          0.60000000	        -24.02456637	         -4.03165684	        -14.27482572	         -4.26604118	         14.35219051	          4.99219942	        -20.29845839	         12.34389027	         40.01526351	         -0.00267247	         34.31988970	
          0.61000000	        -24.00147087	         -4.06177850	        -14.25904471	         -4.27377852	         14.29850750	          5.01569790	        -19.40117144	         12.43292243	         39.03194520	         -0.00385467	         34.31999074	
          0.62000000	        -23.97714859	         -4.09938804	        -14.24254107	         -4.28569544	         14.23915257	          5.04307653	        -18.43818428	         12.54851117	         37.83771636	         -0.00245119	         34.31986303	
          0.63000000	        -23.95331276	         -4.14540064	        -14.22773829	         -4.30272596	         14.17461556	          5.07451885	        -17.41019659	         12.69552957	         36.39988450	          0.00146973	         34.31950358	
          0.64000000	        -23.93269446	         -4.20037298	        -14.21868751	         -4.32569249	         14.10576475	          5.11000807	        -16.31372236	         12.87808165	         34.68096263	          0.00660464	         34.31902967	
          0.65000000	        -23.91669751	         -4.26403455	        -14.21680646	         -4.35495269	         14.03443317	          5.14903042	        -15.14521472	         13.09700890	         32.66638269	          0.01062490	         34.31865812	
          0.66000000	        -23.90449146	         -4.33486283	        -14.21934576	         -4.39005388	         13.96355703	          5.19038889	        -13.90553475	         13.34850661	         30.38681499	          0.01137234	         34.31859249	
          0.67000000	        -23.89419594	         -4.40995468	        -14.22174654	         -4.42958081	         13.89668584	          5.23226565	        -12.60203030	         13.62470571	         27.92201766	          0.00833389	         34.31888343	
          0.68000000	        -23.88445077	         -4.48547629	        -14.22064387	         -4.47140965	         13.83726268	          5.27253811	        -11.24712263	         13.91577985	         25.38340493	          0.00302762	         34.31939239	
          0.69000000	        -23.87480176	         -4.55764886	        -14.21455999	         -4.51335787	         13.78813319	          5.30922642	         -9.85476813	         14.21242774	         22.88505971	         -0.00213630	         34.31989919	
          0.70000000	        -23.86510413	         -4.62376787	        -14.20271432	         -4.55388410	         13.75137837	          5.34088321	         -8.43728020	         14.50770570	         20.51831059	         -0.00546758	         34.32025039	
          0.71000000	        -23.85501481	         -4.68273282	        -14.18403290	         -4.59245706	         13.72829124	          5.36679073	         -7.00404339	         14.79775555	         18.33991981	         -0.00676410	         34.32042691	
          0.72000000	        -23.84404939	         -4.73495715	        -14.15728168	         -4.62948815	         13.71936509	          5.38694627	         -5.56190959	         15.08150966	         16.37423003	         -0.00693100	         34.32050646	
          0.73000000	        -23.83169769	         -4.78188792	        -14.12135459	         -4.66598670	         13.72435387	          5.40189162	         -4.11609079	         15.35971539	         14.62307850	         -0.00710837	         34.32058336	
          0.74000000	        -23.81742473	         -4.82541937	        -14.07535577	         -4.70314130	         13.74238938	          5.41248556	         -2.67057579	         15.63380360	         13.07666906	         -0.00792133	         34.32070287	
          0.75000000	        -23.80035051	         -4.86737842	        -14.01807616	         -4.74195093	         13.77215582	          5.41968040	         -1.22764123	         15.90495400	         11.72101272	         -0.00921530	         34.32084099	
          0.76000000	        -23.77958357	         -4.90915635	        -13.94865718	         -4.78296500	         13.81189390	          5.42439073	          0.21357780	         16.17374881	         10.54055264	         -0.01028540	         34.32092510	
